<mxfile host="app.diagrams.net" modified="2023-11-26T20:05:13.806Z" agent="Mozilla/5.0 (Windows NT 10.0; Win64; x64) AppleWebKit/537.36 (KHTML, like Gecko) Chrome/118.0.0.0 Safari/537.36" etag="bswWqjlzsgtrdvbmczbV" version="22.1.4" type="github">
  <diagram id="R2lEEEUBdFMjLlhIrx00" name="Page-1">
    <mxGraphModel dx="2254" dy="765" grid="1" gridSize="10" guides="1" tooltips="1" connect="1" arrows="1" fold="1" page="1" pageScale="1" pageWidth="850" pageHeight="1100" math="0" shadow="0" extFonts="Permanent Marker^https://fonts.googleapis.com/css?family=Permanent+Marker">
      <root>
        <mxCell id="0" />
        <mxCell id="1" parent="0" />
        <mxCell id="8xzn_q52di9VCO_b8Bq9-3" style="edgeStyle=orthogonalEdgeStyle;rounded=0;orthogonalLoop=1;jettySize=auto;html=1;exitX=0;exitY=0.5;exitDx=0;exitDy=0;entryX=1;entryY=0.5;entryDx=0;entryDy=0;" edge="1" parent="1" source="8xzn_q52di9VCO_b8Bq9-1" target="8xzn_q52di9VCO_b8Bq9-2">
          <mxGeometry relative="1" as="geometry" />
        </mxCell>
        <mxCell id="8xzn_q52di9VCO_b8Bq9-16" style="edgeStyle=orthogonalEdgeStyle;rounded=0;orthogonalLoop=1;jettySize=auto;html=1;exitX=0.5;exitY=1;exitDx=0;exitDy=0;entryX=0.5;entryY=0;entryDx=0;entryDy=0;" edge="1" parent="1" source="8xzn_q52di9VCO_b8Bq9-1" target="8xzn_q52di9VCO_b8Bq9-14">
          <mxGeometry relative="1" as="geometry" />
        </mxCell>
        <mxCell id="8xzn_q52di9VCO_b8Bq9-1" value="Bücherei" style="rhombus;whiteSpace=wrap;html=1;" vertex="1" parent="1">
          <mxGeometry x="380" y="360" width="120" height="80" as="geometry" />
        </mxCell>
        <mxCell id="8xzn_q52di9VCO_b8Bq9-6" style="edgeStyle=orthogonalEdgeStyle;rounded=0;orthogonalLoop=1;jettySize=auto;html=1;exitX=0.25;exitY=1;exitDx=0;exitDy=0;entryX=0.25;entryY=0;entryDx=0;entryDy=0;" edge="1" parent="1" source="8xzn_q52di9VCO_b8Bq9-2" target="8xzn_q52di9VCO_b8Bq9-4">
          <mxGeometry relative="1" as="geometry" />
        </mxCell>
        <mxCell id="8xzn_q52di9VCO_b8Bq9-8" style="edgeStyle=orthogonalEdgeStyle;rounded=0;orthogonalLoop=1;jettySize=auto;html=1;exitX=0.25;exitY=0;exitDx=0;exitDy=0;entryX=0.25;entryY=1;entryDx=0;entryDy=0;" edge="1" parent="1" source="8xzn_q52di9VCO_b8Bq9-2" target="8xzn_q52di9VCO_b8Bq9-7">
          <mxGeometry relative="1" as="geometry" />
        </mxCell>
        <mxCell id="8xzn_q52di9VCO_b8Bq9-12" style="edgeStyle=orthogonalEdgeStyle;rounded=0;orthogonalLoop=1;jettySize=auto;html=1;exitX=0;exitY=0.25;exitDx=0;exitDy=0;entryX=1;entryY=0.5;entryDx=0;entryDy=0;" edge="1" parent="1" source="8xzn_q52di9VCO_b8Bq9-2" target="8xzn_q52di9VCO_b8Bq9-10">
          <mxGeometry relative="1" as="geometry" />
        </mxCell>
        <mxCell id="8xzn_q52di9VCO_b8Bq9-13" style="edgeStyle=orthogonalEdgeStyle;rounded=0;orthogonalLoop=1;jettySize=auto;html=1;exitX=0;exitY=0.75;exitDx=0;exitDy=0;entryX=1;entryY=0.5;entryDx=0;entryDy=0;" edge="1" parent="1" source="8xzn_q52di9VCO_b8Bq9-2" target="8xzn_q52di9VCO_b8Bq9-11">
          <mxGeometry relative="1" as="geometry" />
        </mxCell>
        <mxCell id="8xzn_q52di9VCO_b8Bq9-2" value="Búcher" style="rounded=0;whiteSpace=wrap;html=1;" vertex="1" parent="1">
          <mxGeometry x="200" y="370" width="120" height="60" as="geometry" />
        </mxCell>
        <mxCell id="8xzn_q52di9VCO_b8Bq9-5" style="edgeStyle=orthogonalEdgeStyle;rounded=0;orthogonalLoop=1;jettySize=auto;html=1;exitX=0.75;exitY=0;exitDx=0;exitDy=0;entryX=0.75;entryY=1;entryDx=0;entryDy=0;" edge="1" parent="1" source="8xzn_q52di9VCO_b8Bq9-4" target="8xzn_q52di9VCO_b8Bq9-2">
          <mxGeometry relative="1" as="geometry" />
        </mxCell>
        <mxCell id="8xzn_q52di9VCO_b8Bq9-4" value="Author" style="rounded=0;whiteSpace=wrap;html=1;" vertex="1" parent="1">
          <mxGeometry x="200" y="500" width="120" height="60" as="geometry" />
        </mxCell>
        <mxCell id="8xzn_q52di9VCO_b8Bq9-9" style="edgeStyle=orthogonalEdgeStyle;rounded=0;orthogonalLoop=1;jettySize=auto;html=1;exitX=0.75;exitY=1;exitDx=0;exitDy=0;entryX=0.75;entryY=0;entryDx=0;entryDy=0;" edge="1" parent="1" source="8xzn_q52di9VCO_b8Bq9-7" target="8xzn_q52di9VCO_b8Bq9-2">
          <mxGeometry relative="1" as="geometry" />
        </mxCell>
        <mxCell id="8xzn_q52di9VCO_b8Bq9-7" value="Themen" style="rounded=0;whiteSpace=wrap;html=1;" vertex="1" parent="1">
          <mxGeometry x="200" y="200" width="120" height="60" as="geometry" />
        </mxCell>
        <mxCell id="8xzn_q52di9VCO_b8Bq9-10" value="&lt;div&gt;Titel&lt;/div&gt;" style="ellipse;whiteSpace=wrap;html=1;" vertex="1" parent="1">
          <mxGeometry x="-30" y="300" width="120" height="80" as="geometry" />
        </mxCell>
        <mxCell id="8xzn_q52di9VCO_b8Bq9-11" value="ISBN" style="ellipse;whiteSpace=wrap;html=1;" vertex="1" parent="1">
          <mxGeometry x="-30" y="420" width="120" height="80" as="geometry" />
        </mxCell>
        <mxCell id="8xzn_q52di9VCO_b8Bq9-15" style="edgeStyle=orthogonalEdgeStyle;rounded=0;orthogonalLoop=1;jettySize=auto;html=1;exitX=0;exitY=0;exitDx=0;exitDy=0;entryX=1;entryY=1;entryDx=0;entryDy=0;" edge="1" parent="1" source="8xzn_q52di9VCO_b8Bq9-14" target="8xzn_q52di9VCO_b8Bq9-2">
          <mxGeometry relative="1" as="geometry" />
        </mxCell>
        <mxCell id="8xzn_q52di9VCO_b8Bq9-20" style="edgeStyle=orthogonalEdgeStyle;rounded=0;orthogonalLoop=1;jettySize=auto;html=1;exitX=0.25;exitY=1;exitDx=0;exitDy=0;entryX=0.5;entryY=0;entryDx=0;entryDy=0;" edge="1" parent="1" source="8xzn_q52di9VCO_b8Bq9-14" target="8xzn_q52di9VCO_b8Bq9-17">
          <mxGeometry relative="1" as="geometry" />
        </mxCell>
        <mxCell id="8xzn_q52di9VCO_b8Bq9-21" style="edgeStyle=orthogonalEdgeStyle;rounded=0;orthogonalLoop=1;jettySize=auto;html=1;exitX=0.5;exitY=1;exitDx=0;exitDy=0;entryX=0.5;entryY=0;entryDx=0;entryDy=0;" edge="1" parent="1" source="8xzn_q52di9VCO_b8Bq9-14" target="8xzn_q52di9VCO_b8Bq9-18">
          <mxGeometry relative="1" as="geometry" />
        </mxCell>
        <mxCell id="8xzn_q52di9VCO_b8Bq9-22" style="edgeStyle=orthogonalEdgeStyle;rounded=0;orthogonalLoop=1;jettySize=auto;html=1;exitX=0.75;exitY=1;exitDx=0;exitDy=0;entryX=0.5;entryY=0;entryDx=0;entryDy=0;" edge="1" parent="1" source="8xzn_q52di9VCO_b8Bq9-14" target="8xzn_q52di9VCO_b8Bq9-19">
          <mxGeometry relative="1" as="geometry" />
        </mxCell>
        <mxCell id="8xzn_q52di9VCO_b8Bq9-30" style="edgeStyle=orthogonalEdgeStyle;rounded=0;orthogonalLoop=1;jettySize=auto;html=1;exitX=0;exitY=0.5;exitDx=0;exitDy=0;entryX=0.5;entryY=1;entryDx=0;entryDy=0;" edge="1" parent="1" source="8xzn_q52di9VCO_b8Bq9-14" target="8xzn_q52di9VCO_b8Bq9-28">
          <mxGeometry relative="1" as="geometry">
            <Array as="points">
              <mxPoint x="380" y="770" />
              <mxPoint x="10" y="770" />
            </Array>
          </mxGeometry>
        </mxCell>
        <mxCell id="8xzn_q52di9VCO_b8Bq9-31" style="edgeStyle=orthogonalEdgeStyle;rounded=0;orthogonalLoop=1;jettySize=auto;html=1;exitX=0;exitY=0.75;exitDx=0;exitDy=0;entryX=0.5;entryY=1;entryDx=0;entryDy=0;" edge="1" parent="1" source="8xzn_q52di9VCO_b8Bq9-14" target="8xzn_q52di9VCO_b8Bq9-29">
          <mxGeometry relative="1" as="geometry">
            <Array as="points">
              <mxPoint x="380" y="770" />
              <mxPoint x="190" y="770" />
            </Array>
          </mxGeometry>
        </mxCell>
        <mxCell id="8xzn_q52di9VCO_b8Bq9-14" value="Kunde" style="rounded=0;whiteSpace=wrap;html=1;" vertex="1" parent="1">
          <mxGeometry x="380" y="730" width="120" height="60" as="geometry" />
        </mxCell>
        <mxCell id="8xzn_q52di9VCO_b8Bq9-17" value="Nachname" style="ellipse;whiteSpace=wrap;html=1;" vertex="1" parent="1">
          <mxGeometry x="240" y="850" width="120" height="80" as="geometry" />
        </mxCell>
        <mxCell id="8xzn_q52di9VCO_b8Bq9-18" value="Vorname" style="ellipse;whiteSpace=wrap;html=1;" vertex="1" parent="1">
          <mxGeometry x="380" y="850" width="120" height="80" as="geometry" />
        </mxCell>
        <mxCell id="8xzn_q52di9VCO_b8Bq9-19" value="Addresse" style="ellipse;whiteSpace=wrap;html=1;" vertex="1" parent="1">
          <mxGeometry x="530" y="850" width="120" height="80" as="geometry" />
        </mxCell>
        <mxCell id="8xzn_q52di9VCO_b8Bq9-23" value="Seit wann verliehen" style="ellipse;whiteSpace=wrap;html=1;" vertex="1" parent="1">
          <mxGeometry x="80" y="960" width="120" height="80" as="geometry" />
        </mxCell>
        <mxCell id="8xzn_q52di9VCO_b8Bq9-26" value="Muss wann zurück" style="ellipse;whiteSpace=wrap;html=1;" vertex="1" parent="1">
          <mxGeometry x="210" y="960" width="120" height="80" as="geometry" />
        </mxCell>
        <mxCell id="8xzn_q52di9VCO_b8Bq9-33" style="edgeStyle=orthogonalEdgeStyle;rounded=0;orthogonalLoop=1;jettySize=auto;html=1;exitX=0.5;exitY=0;exitDx=0;exitDy=0;entryX=0;entryY=0.5;entryDx=0;entryDy=0;" edge="1" parent="1" source="8xzn_q52di9VCO_b8Bq9-28" target="8xzn_q52di9VCO_b8Bq9-2">
          <mxGeometry relative="1" as="geometry">
            <Array as="points">
              <mxPoint x="10" y="620" />
              <mxPoint x="180" y="620" />
              <mxPoint x="180" y="400" />
            </Array>
          </mxGeometry>
        </mxCell>
        <mxCell id="8xzn_q52di9VCO_b8Bq9-37" style="edgeStyle=orthogonalEdgeStyle;rounded=0;orthogonalLoop=1;jettySize=auto;html=1;exitX=0.25;exitY=1;exitDx=0;exitDy=0;entryX=0.5;entryY=0;entryDx=0;entryDy=0;" edge="1" parent="1" source="8xzn_q52di9VCO_b8Bq9-28" target="8xzn_q52di9VCO_b8Bq9-36">
          <mxGeometry relative="1" as="geometry" />
        </mxCell>
        <mxCell id="8xzn_q52di9VCO_b8Bq9-28" value="Vorbemerkung" style="rounded=0;whiteSpace=wrap;html=1;" vertex="1" parent="1">
          <mxGeometry x="-50" y="690" width="120" height="60" as="geometry" />
        </mxCell>
        <mxCell id="8xzn_q52di9VCO_b8Bq9-32" style="edgeStyle=orthogonalEdgeStyle;rounded=0;orthogonalLoop=1;jettySize=auto;html=1;exitX=0.5;exitY=0;exitDx=0;exitDy=0;entryX=0;entryY=0.5;entryDx=0;entryDy=0;" edge="1" parent="1" source="8xzn_q52di9VCO_b8Bq9-29" target="8xzn_q52di9VCO_b8Bq9-2">
          <mxGeometry relative="1" as="geometry">
            <Array as="points">
              <mxPoint x="180" y="690" />
              <mxPoint x="180" y="400" />
            </Array>
          </mxGeometry>
        </mxCell>
        <mxCell id="8xzn_q52di9VCO_b8Bq9-35" style="edgeStyle=orthogonalEdgeStyle;rounded=0;orthogonalLoop=1;jettySize=auto;html=1;exitX=0.75;exitY=1;exitDx=0;exitDy=0;entryX=0;entryY=0;entryDx=0;entryDy=0;" edge="1" parent="1" source="8xzn_q52di9VCO_b8Bq9-29" target="8xzn_q52di9VCO_b8Bq9-26">
          <mxGeometry relative="1" as="geometry" />
        </mxCell>
        <mxCell id="8xzn_q52di9VCO_b8Bq9-29" value="Ausgeliehen" style="rounded=0;whiteSpace=wrap;html=1;" vertex="1" parent="1">
          <mxGeometry x="130" y="690" width="120" height="60" as="geometry" />
        </mxCell>
        <mxCell id="8xzn_q52di9VCO_b8Bq9-34" style="edgeStyle=orthogonalEdgeStyle;rounded=0;orthogonalLoop=1;jettySize=auto;html=1;exitX=0.25;exitY=1;exitDx=0;exitDy=0;entryX=0.683;entryY=0.05;entryDx=0;entryDy=0;entryPerimeter=0;" edge="1" parent="1" source="8xzn_q52di9VCO_b8Bq9-29" target="8xzn_q52di9VCO_b8Bq9-23">
          <mxGeometry relative="1" as="geometry" />
        </mxCell>
        <mxCell id="8xzn_q52di9VCO_b8Bq9-36" value="seit wann" style="ellipse;whiteSpace=wrap;html=1;" vertex="1" parent="1">
          <mxGeometry x="-140" y="890" width="120" height="80" as="geometry" />
        </mxCell>
      </root>
    </mxGraphModel>
  </diagram>
</mxfile>
